<mxfile host="65bd71144e">
    <diagram id="zECuAJbB2GYEj_pCzovV" name="Page-1">
        <mxGraphModel dx="984" dy="390" grid="0" gridSize="10" guides="1" tooltips="1" connect="1" arrows="1" fold="1" page="1" pageScale="1" pageWidth="850" pageHeight="1100" math="0" shadow="0">
            <root>
                <mxCell id="0"/>
                <mxCell id="1" parent="0"/>
                <mxCell id="51" style="edgeStyle=none;html=1;exitX=1;exitY=0.5;exitDx=0;exitDy=0;entryX=0;entryY=0.5;entryDx=0;entryDy=0;" edge="1" parent="1" source="2" target="6">
                    <mxGeometry relative="1" as="geometry"/>
                </mxCell>
                <mxCell id="2" value="A" style="ellipse;whiteSpace=wrap;html=1;aspect=fixed;fillColor=#f8cecc;strokeColor=#b85450;strokeWidth=4;" vertex="1" parent="1">
                    <mxGeometry x="279" y="146" width="40" height="40" as="geometry"/>
                </mxCell>
                <mxCell id="3" value="E" style="ellipse;whiteSpace=wrap;html=1;aspect=fixed;fillColor=#ffe6cc;strokeColor=#d79b00;strokeWidth=4;" vertex="1" parent="1">
                    <mxGeometry x="719" y="146" width="40" height="40" as="geometry"/>
                </mxCell>
                <mxCell id="54" style="edgeStyle=none;html=1;exitX=1;exitY=0.5;exitDx=0;exitDy=0;entryX=0;entryY=0.5;entryDx=0;entryDy=0;" edge="1" parent="1" source="4" target="3">
                    <mxGeometry relative="1" as="geometry"/>
                </mxCell>
                <mxCell id="4" value="D" style="ellipse;whiteSpace=wrap;html=1;aspect=fixed;" vertex="1" parent="1">
                    <mxGeometry x="639" y="146" width="40" height="40" as="geometry"/>
                </mxCell>
                <mxCell id="53" style="edgeStyle=none;html=1;exitX=1;exitY=0.5;exitDx=0;exitDy=0;" edge="1" parent="1" source="5" target="4">
                    <mxGeometry relative="1" as="geometry"/>
                </mxCell>
                <mxCell id="5" value="C" style="ellipse;whiteSpace=wrap;html=1;aspect=fixed;" vertex="1" parent="1">
                    <mxGeometry x="500" y="146" width="40" height="40" as="geometry"/>
                </mxCell>
                <mxCell id="52" style="edgeStyle=none;html=1;exitX=1;exitY=0.5;exitDx=0;exitDy=0;entryX=0;entryY=0.5;entryDx=0;entryDy=0;" edge="1" parent="1" source="6" target="5">
                    <mxGeometry relative="1" as="geometry"/>
                </mxCell>
                <mxCell id="6" value="B" style="ellipse;whiteSpace=wrap;html=1;aspect=fixed;" vertex="1" parent="1">
                    <mxGeometry x="398" y="146" width="40" height="40" as="geometry"/>
                </mxCell>
                <mxCell id="18" value="A" style="ellipse;whiteSpace=wrap;html=1;aspect=fixed;strokeWidth=4;fillColor=#ffe6cc;strokeColor=#d79b00;" vertex="1" parent="1">
                    <mxGeometry x="279" y="293.5" width="40" height="40" as="geometry"/>
                </mxCell>
                <mxCell id="19" value="E" style="ellipse;whiteSpace=wrap;html=1;aspect=fixed;strokeWidth=1;" vertex="1" parent="1">
                    <mxGeometry x="719" y="293.5" width="40" height="40" as="geometry"/>
                </mxCell>
                <mxCell id="20" value="D" style="ellipse;whiteSpace=wrap;html=1;aspect=fixed;strokeWidth=1;" vertex="1" parent="1">
                    <mxGeometry x="639" y="293.5" width="40" height="40" as="geometry"/>
                </mxCell>
                <mxCell id="21" value="C" style="ellipse;whiteSpace=wrap;html=1;aspect=fixed;strokeWidth=4;fillColor=#f8cecc;strokeColor=#b85450;" vertex="1" parent="1">
                    <mxGeometry x="500" y="293.5" width="40" height="40" as="geometry"/>
                </mxCell>
                <mxCell id="22" value="B" style="ellipse;whiteSpace=wrap;html=1;aspect=fixed;strokeWidth=1;" vertex="1" parent="1">
                    <mxGeometry x="398" y="293.5" width="40" height="40" as="geometry"/>
                </mxCell>
                <mxCell id="23" value="A" style="ellipse;whiteSpace=wrap;html=1;aspect=fixed;strokeWidth=4;" vertex="1" parent="1">
                    <mxGeometry x="279" y="386" width="40" height="40" as="geometry"/>
                </mxCell>
                <mxCell id="24" value="E" style="ellipse;whiteSpace=wrap;html=1;aspect=fixed;strokeWidth=1;fillColor=#f8cecc;strokeColor=#b85450;dashed=1;" vertex="1" parent="1">
                    <mxGeometry x="719" y="386" width="40" height="40" as="geometry"/>
                </mxCell>
                <mxCell id="25" value="D" style="ellipse;whiteSpace=wrap;html=1;aspect=fixed;strokeWidth=1;fillColor=#fff2cc;strokeColor=#d6b656;dashed=1;" vertex="1" parent="1">
                    <mxGeometry x="639" y="386" width="40" height="40" as="geometry"/>
                </mxCell>
                <mxCell id="26" value="C" style="ellipse;whiteSpace=wrap;html=1;aspect=fixed;strokeWidth=4;" vertex="1" parent="1">
                    <mxGeometry x="500" y="386" width="40" height="40" as="geometry"/>
                </mxCell>
                <mxCell id="27" value="B" style="ellipse;whiteSpace=wrap;html=1;aspect=fixed;strokeWidth=1;fillColor=#ffe6cc;strokeColor=#d79b00;dashed=1;" vertex="1" parent="1">
                    <mxGeometry x="398" y="386" width="40" height="40" as="geometry"/>
                </mxCell>
                <mxCell id="62" style="edgeStyle=none;shape=link;html=1;exitX=1;exitY=0.5;exitDx=0;exitDy=0;entryX=0;entryY=0.5;entryDx=0;entryDy=0;" edge="1" parent="1" source="30" target="35">
                    <mxGeometry relative="1" as="geometry"/>
                </mxCell>
                <mxCell id="30" value="A" style="ellipse;whiteSpace=wrap;html=1;aspect=fixed;labelBackgroundColor=none;strokeWidth=4;" vertex="1" parent="1">
                    <mxGeometry x="279" y="210.5" width="40" height="40" as="geometry"/>
                </mxCell>
                <mxCell id="31" value="E" style="ellipse;whiteSpace=wrap;html=1;aspect=fixed;strokeWidth=4;" vertex="1" parent="1">
                    <mxGeometry x="719" y="210.5" width="40" height="40" as="geometry"/>
                </mxCell>
                <mxCell id="64" style="edgeStyle=none;shape=link;html=1;exitX=1;exitY=0.5;exitDx=0;exitDy=0;" edge="1" parent="1" source="32" target="31">
                    <mxGeometry relative="1" as="geometry"/>
                </mxCell>
                <mxCell id="32" value="D" style="ellipse;whiteSpace=wrap;html=1;aspect=fixed;strokeWidth=1;dashed=1;" vertex="1" parent="1">
                    <mxGeometry x="639" y="210.5" width="40" height="40" as="geometry"/>
                </mxCell>
                <mxCell id="34" value="C" style="ellipse;whiteSpace=wrap;html=1;aspect=fixed;strokeWidth=1;dashed=1;" vertex="1" parent="1">
                    <mxGeometry x="500" y="210.5" width="40" height="40" as="geometry"/>
                </mxCell>
                <mxCell id="60" style="edgeStyle=none;html=1;exitX=1;exitY=0.5;exitDx=0;exitDy=0;entryX=0;entryY=0.5;entryDx=0;entryDy=0;shape=link;" edge="1" parent="1" source="35" target="34">
                    <mxGeometry relative="1" as="geometry"/>
                </mxCell>
                <mxCell id="35" value="B" style="ellipse;whiteSpace=wrap;html=1;aspect=fixed;strokeWidth=1;dashed=1;" vertex="1" parent="1">
                    <mxGeometry x="398" y="210.5" width="40" height="40" as="geometry"/>
                </mxCell>
                <mxCell id="55" value="4" style="text;html=1;align=center;verticalAlign=middle;resizable=0;points=[];autosize=1;strokeColor=none;fillColor=none;" vertex="1" parent="1">
                    <mxGeometry x="345" y="140" width="30" height="30" as="geometry"/>
                </mxCell>
                <mxCell id="56" value="2" style="text;html=1;align=center;verticalAlign=middle;resizable=0;points=[];autosize=1;strokeColor=none;fillColor=none;" vertex="1" parent="1">
                    <mxGeometry x="679" y="140" width="30" height="30" as="geometry"/>
                </mxCell>
                <mxCell id="57" value="5" style="text;html=1;align=center;verticalAlign=middle;resizable=0;points=[];autosize=1;strokeColor=none;fillColor=none;" vertex="1" parent="1">
                    <mxGeometry x="570" y="140" width="30" height="30" as="geometry"/>
                </mxCell>
                <mxCell id="58" value="3" style="text;html=1;align=center;verticalAlign=middle;resizable=0;points=[];autosize=1;strokeColor=none;fillColor=none;" vertex="1" parent="1">
                    <mxGeometry x="450" y="140" width="30" height="30" as="geometry"/>
                </mxCell>
                <mxCell id="61" value="First" style="text;html=1;align=center;verticalAlign=middle;resizable=0;points=[];autosize=1;strokeColor=none;fillColor=none;" vertex="1" parent="1">
                    <mxGeometry x="445" y="205" width="41" height="26" as="geometry"/>
                </mxCell>
                <mxCell id="63" value="Second" style="text;html=1;align=center;verticalAlign=middle;resizable=0;points=[];autosize=1;strokeColor=none;fillColor=none;" vertex="1" parent="1">
                    <mxGeometry x="328" y="205" width="59" height="26" as="geometry"/>
                </mxCell>
                <mxCell id="65" value="Third" style="text;html=1;align=center;verticalAlign=middle;resizable=0;points=[];autosize=1;strokeColor=none;fillColor=none;" vertex="1" parent="1">
                    <mxGeometry x="671.5" y="205" width="45" height="26" as="geometry"/>
                </mxCell>
            </root>
        </mxGraphModel>
    </diagram>
</mxfile>